# xmcd
#
# Track frame offsets: 
#        150
#        24392
#        43620
#        73772
#        96055
#        128440
#        141432
#        174520
#        200907
#        226317
#        249982
#        275807
#        300597
#
# Disc length: 4363 seconds
#
# Revision: 1
# Processed by: cddbd v1.5.1PL0 Copyright (c) Steve Scherf et al.
# Submitted via: ExactAudioCopy v0.95a5
#
DISCID=b711090d
DTITLE=Various Artist - PF02 - Patrick Forge
DYEAR=2002
DGENRE=Jazz
TTITLE0=Izzi Dunn - Betcha (Fireworx remix)
TTITLE1=Blacq and Wright - The Dance
TTITLE2=Hajime Yoshizawa feat. Chris Franck and Nina Miranda - I Am Wi
TTITLE2=th You (The Main mix)
TTITLE3=Povo - Uam Uam
TTITLE4=Gigi - Gud Fella (Restless Soul Off-centre mix)
TTITLE5=Los Ladrones - Mi Amor Es (Waiwan dub)
TTITLE6=John Beltran - Felicidad Nova
TTITLE7=Emo - Relief for Free (Butti 49 remix)
TTITLE8=Swell Session vs. Ernesto's - Let Me Decide
TTITLE9=Da Lata - Golden (Bugz in the Attic mix)
TTITLE10=Grupo Batuque - Berimbal Capoeira (Da Lata remix)
TTITLE11=The Brooklyn Soulboys - Fort Green Jazzmatazz (Original mix)
TTITLE12=Cleveland Watkiss and Source - Torch of Freedom (DJ Patife and Ma
TTITLE12=dzoo mix)
EXTD=YEAR: 2002
EXTT0=
EXTT1=
EXTT2=
EXTT3=
EXTT4=
EXTT5=
EXTT6=
EXTT7=
EXTT8=
EXTT9=
EXTT10=
EXTT11=
EXTT12=
PLAYORDER=
